<svg width="37" height="12" viewBox="0 0 37 12" fill="none" xmlns="http://www.w3.org/2000/svg">
<path d="M35.75 6.27295C36.1642 6.27295 36.5 5.93716 36.5 5.52295C36.5 5.10874 36.1642 4.77295 35.75 4.77295V6.27295ZM0.219669 4.99262C-0.0732231 5.28551 -0.0732231 5.76039 0.219669 6.05328L4.99264 10.8263C5.28553 11.1191 5.76041 11.1191 6.0533 10.8263C6.34619 10.5334 6.34619 10.0585 6.0533 9.76559L1.81066 5.52295L6.0533 1.28031C6.34619 0.987415 6.34619 0.512542 6.0533 0.219648C5.76041 -0.073245 5.28553 -0.073245 4.99264 0.219648L0.219669 4.99262ZM35.75 4.77295H0.75V6.27295H35.75V4.77295Z" fill="url(#paint0_linear_24_90)"/>
<defs>
<linearGradient id="paint0_linear_24_90" x1="0.749998" y1="4.86888" x2="7.54249" y2="-6.75282" gradientUnits="userSpaceOnUse">
<stop stop-color="#237249"/>
<stop offset="1" stop-color="#35C66B"/>
</linearGradient>
</defs>
</svg>
